<?xml version="1.0" encoding="utf-8"?>
<!-- Generator: Adobe Illustrator 16.0.0, SVG Export Plug-In . SVG Version: 6.00 Build 0)  -->
<!DOCTYPE svg PUBLIC "-//W3C//DTD SVG 1.1//EN" "http://www.w3.org/Graphics/SVG/1.1/DTD/svg11.dtd">
<svg version="1.1" id="Layer_1" xmlns="http://www.w3.org/2000/svg" xmlns:xlink="http://www.w3.org/1999/xlink" x="0px" y="0px"
	 width="554.934px" height="78.94px" viewBox="0 0 554.934 78.94" enable-background="new 0 0 554.934 78.94" xml:space="preserve">
<g>
	<g>
		<path fill="#010101" d="M105.489,26.102c0.601,3.974,0.111,9.43-1.261,15.415c0.868,0.961,0.863,2.469,0.142,4.195
			c1.951,5.021-0.041,10.066-4.193,14.354c-1.744,4.174-2.812,7.814-3.637,10.306c0.439,1.979,0.133,2.704-0.58,2.225
			c-4.292-1.114-4.718-4.548-4.138-8.937c0.964-2.555,2.634-5.903,3.063-9.545c0.941-1.967,0.832-4.246,0.351-6.346
			c0.381-1.588-0.901-2.091-3.396-1.404c-3.953,0.619-4.945,1.406-5.333,4.219c-0.504,2.191-1.016,4.347-1.449,6.078
			c-0.52,1.443-0.882,2.65-1.567,2.834c-4.992,4.232-5.448,8.594-6.051,11.548c-0.991,2.33-1.545,3.344-1.334,3.128
			c-4.972-0.809-5.803-3.75-4.696-8.046c-0.993-2.652,1.544-5.899,4.428-9.546c1.655-3.338,1.803-6.947,1.767-10.487
			c-1.289-3.55-1.534-6.908-1.062-9.433c-1.022-4.463,2.672-7.18,4.738-8.985c-0.129-1.362,0.187-1.341,0.891,0.056
			c0.427,1.692,1.258,4.755,2.302,8.66c0.129,0.592,0.388,2.042,0.978,4.061c0.298,1.109,1.083,1.356,3.442,1.188
			c0.11-0.542,0.19-0.568,0.23-0.07c8.474-3.05,8.463-3.05,8.934-8.273c0.975-3.27,0.979-5.601,3.325-5.801
			c1.968-1.982,3.152-2.555,3.322-1.639C105.99,24.446,106.268,24.534,105.489,26.102z M94.763,69.969
			c0.871,0.942,1.047,0.868,0.688-0.479c0.515,1.088,0.599,0.901,0.15-0.481c0.081-1.46,1.368-3.961,2.586-7.196
			c1.334-0.246,1.997-1.306,1.764-2.97c1.283-0.774,2.155-2.08,0.042-3.876c-0.47-0.843,1.239-2.842,2.569-3.01
			c0.998-5.202,1.14-10.557,0.401-15.2c0.543-0.743,0.003-0.691-1.658,0.161c2.15-4.271,5.175-7.473,2.614-10.029
			c-0.15-0.582-0.982,0.03-2.607,1.921c2.595-0.368,2.828-0.207,0.469,1.907c-1.505,0.296-1.956,2.052-2.787,4.749
			c0.462,0.771,0.52,2.402-0.138,4.152c-2.911,0.7-6.173,1.857-9.415,3.486c-3.23,0.901-5.578,0.137-5.692-1.969
			c-0.915-0.375-1.507-0.249-2.046,0.436c-0.304-4.606-0.181-8.542,0.354-11.3c-0.78-1.202-1.148-1.227-1.041-0.07
			c-1.037-0.04-1.538,1.115-1.602,3.22c-1.294,0.279-2.389,1.565,1.461,2.638c-0.887-0.096-1.282,0.443-0.941,1.72
			c-1.042,0.687-1.799,2.108-1.196,3.969c-0.633,1.224-0.022,2.899,0.936,4.743c-0.219,1.262-0.496,3.145,1.246,3.933
			c1.37,1.326,0.447,2.131,0.017,2.938c-1.829,1.822-3.546,3.307-3.813,4.436c-2.641,3.766-5.298,6.939-4.031,9.418
			c-0.82,2.823-0.327,4.389,2.915,4.477c-0.606-0.22,0.302-2.023,0.26-3.625c-2.151,0.416-1.854-0.113-0.462-1.902
			c1.103-1.33,3.08-3.67,5.475-6.649c-0.342,0.491-0.32,0.317,0.204-0.473c-1.023,0.594-1.502,0.586-1.791-0.03
			c0.188-0.225,0.669-0.943,1.841-2.01c2.306-1.739,4.043-4.001,3.822-7.003c-0.564-2.431,2.122-3.976,7.193-4.88
			c2.859-0.83,4.375-0.37,5.648,1.447c0.125,1.037-0.344,1.85-0.994,2.674c0.328,1.309,0.995,2.813-0.336,3.684
			c-1.998,3.548,0.301,6.84-1.535,9.361c0.055,0.789-0.464,0.767-1.414-0.061C93.852,65.858,92.368,68.683,94.763,69.969z"/>
	</g>
	<g>
		<path fill="#010101" d="M140.917,27.398c1.468,1.446,3.318,4.22,5.325,7.786c1.31,1.178,2.971,3.057,4.027,5.584
			c1.54,1.835,2.591,4.271,3.313,6.729c0.746,0.752,0.822,1.626,0.612,2.361c0.696,0.094,0.974,0.084,0.782-0.028
			c0.285-0.876,0.264-1.894-0.545-2.753c-0.936-3.446-2.421-6.772-4.014-9.441c0.014-1.058-0.16-1.509-0.292-1.192
			c0.467-4.257,0.764-7.796,0.97-9.983c0.289-1.84,1.016-2.374,1.283-1.25c0.497-1.521,1.386-1.02,1.207,0.731
			c2.646,2.826,5.482,6.963,6.16,12.071c2.158,3.705,1.88,5.329,2.949,9.59c0.508,3.114,2.005,4.04,0.464,6.146
			c1.45,4.688,0.463,13.038-3.264,15.129c0.281,1.832,0.002,2.516-1.079,1.748c0.19,1.131-0.325,0.876-1.453-0.725
			c0.284-0.168-3.128-0.227-5.094-4.384c-1.124-1.579-5.662-3.712-5.968-6.181c0.016,9.037-6.823,11.729-14.034,11.829
			c-1.187,1.282-1.438,1.143-0.706-0.394c-0.762,0.82-0.64,0.2,0.633-1.623c0.32-0.716,1.69-2.69,3.644-5.682
			c1.688-3.087,0.834-7.67,0.987-12.222c-1.441-6.692-0.557-13.398,0.802-19.153c-0.426-2.638,0.926-4.191,2.206-4.52
			C139.747,26.236,140.13,26.174,140.917,27.398z M152.769,27.292c0.026-1.301-0.248-1.305-0.778-0.01
			c0.034,0.678-0.137,2.658-0.642,5.574c-0.049,0.807,0.286,2.197,1.758,4.203c1.559,0.214,2.188,1.746,2.589,3.492
			c0.544-0.388,0.439-0.218-0.069,0.367c-0.033-0.506-0.545-0.559-1.517-0.153c1.107,1.94,1.77,4.145,1.949,6.477
			c1.111-0.277,1.599-0.45,1.79-0.635c-0.664,2.236-1.071,4.319-1.641,6.108c0.437,3.291,3.956,5.815,3.057,8.685
			c0.857-1.226-5.765-4.664-5.187-6.813c1.066-0.88-0.459-1.163-0.724-2.601c0.497-2.316-0.488-4.81-1.942-7.369
			c0.144-0.396-0.13-0.51-0.52-0.416c-0.219,0.115-0.583,0.439-1.24,1.113c-3.161-6.085-6.286-11.706-9.051-16.277
			c-2.692,1.406-1.473,3.533,0.364,6.249c-1.263-0.509-2.667-0.349-2.219,0.829c-1.111,1.221-1.299,3.266-1.016,5.848
			c0.75-0.59,1.591-0.712,3.649-0.536c-5.846,5.15-3.009,11.259-2.834,16.626c0.85,0.308,1.777,0.112,3.09-0.651
			c-0.149,0.725,0.09,0.883,0.674,0.449c-3.094,4.637-5.867,8.623-7.93,11.399c4.959,0.173,9.242-2.066,10.232-7.976
			c0.336-2.729,0.317-9.466-0.692-13.246c-0.93,0.539-2.036,4.062-2.07,4.147c-0.654,0.163-0.935,0.083-0.793-0.222
			c0.002-2.428,0.426-5.088,1.249-7.862c4.254,2.329,4.236,6.117,5.795,9.017c0.903,0.049,1.538-0.129,2.032-0.574
			c-2.501,3.348,0.657,7.479,2.992,10.459c1.675,2.873,5.743,4.307,5.358,4.789c3.691-1.451,3.859-9.613,2.883-13.762
			c1.074-3.66-0.519-10.451-3.841-17.726C156.987,32.213,154.776,29.15,152.769,27.292z"/>
	</g>
	<g>
		<path fill="#010101" d="M108.447,72.555c-1.886-2.722-1.942-6.136,0.608-9.603c1.738-3.394,2.81-8.461,2.8-14.137
			c-1.369-6.83-1.482-13.914-1.948-19.15c-0.614-1.808,2.106-2.089,3.646-0.767c7.817-1.776,15.353,0.746,21.127,4.675
			c3.622-2.022,2.06,0.849-1.323,2.214c-1.704-0.581-4.239-0.479-7.009,0.554c-3.357-0.749-3.339,0.963-3.55,3.866
			c-0.187,2.75,0.717,5.231,4.196,8.507c1.737,1.086,3.12,2.354,4.291,3.872c-6.371,0.86-7.123,4.633-7.975,7.709
			c-0.103,1.473,0.274,2.608,0.34,2.899c0.375,2.396,1.889,3.336,3.635,2.744c2.56,1.258,4.737,1.418,6.861,0.709
			c-0.136,3.877-1.919,5.668-5.631,4.842c-4.03,1.672-8.718,1.488-12.519,0.359c-2.436,1.286-3.742,2.116-4.739,1.105
			c-1.333,1.482-2.071,1.531-1.996,0.229C108.191,74.331,107.902,74.11,108.447,72.555z M129.934,68.653
			c0.341,0.795,0.144,0.482-0.553-0.887c-4.083,0.542-5.593-0.708-10.854-2.498c1.056-0.104,2.045-0.676,2.829-2.344
			c0.754-0.123,0.466,0.044,0.356-1.825c-0.121-1.517,1.118-3.968,1.293-5.174c0.691-1.508-0.7-0.729-0.333-1.581
			c-1.855-0.163-2.416-0.414-3.661-0.871c-0.334-0.066-0.529-0.305-0.548-0.672c2.576-0.533,6.655-0.281,9.221-1.205
			c-1.865-1.12-5.313-6.425-8.892-5.012c-0.311-1.725-0.498-2.094,0.566-2.344c1.254-1.344,1.724-6.235-0.243-8.487
			c4.672,0.105,11.188-2.78,14.388-1.213c-4.131-4.234-9.076-4.125-14.873-2.99c1.172-3.588-4.478-2.587-6.59-1.302
			c-0.536-0.436-1.205,1.156-0.534,2.943c-0.161,3.665,0.358,8.441,1.223,13.467c-0.419,1.343,0.657,1.783,4.76,2.43
			c-1.459,1.125-3.159,0.928-3.21,2.061c-1.163,1.773-1.64,5.688-1.469,7.076c-0.689,1.329-1.675,2.657-1.293,3.072
			c0.989,0.973,3.531-0.189,4.914-0.605c-0.009,0.852-1.178,2.453-0.552,1.946c-1.75,1.621-1.762,1-3.068,0.601
			c-4.963,1.48-5.101,5.474-3.046,8.121C112.486,68.86,124.596,72.371,129.934,68.653z"/>
	</g>
	<g>
		<path fill="#010101" d="M188.757,39.899c-4.242,1.272-7.76-1.352-11.875-1.378c-0.107-0.462-0.311-0.319-0.577,0.402
			c2.038,2.284,3.723,5.292,5.667,8.012c2.977,2.764,3.463,5.9,2.427,8.7c-0.54,8.004-10.167,16.269-19.361,16.865
			c-1.616,1.709-2.68,1.604-2.889,0.137c-0.915,1.31-1.014,1.108-0.279-0.563c1.049-0.271,2.788-2.114,5.339-4.887
			c3.556-1.982,5.749-5.408,6.74-10.338c1.32-6.279-0.291-12.043-4.799-16.977c-2.843-3.297-4.947-6.339-5.886-8.439
			c-1.643-2.726-1.683-4.848-0.657-5.361c-0.505-3.595,2.849-4.338,5.542-1.499c1.081-0.542,3.032,0.035,4.468,2.426
			c1.969,0.482,3.568,2.65,5.498,5.442c2.579,1.083,5.256,2.953,7.261,5.479C187.017,38.006,188.219,38.588,188.757,39.899z
			 M169.173,26.648c0.05-0.39,0.406,0.552,1.003,2.657c-0.467-1.047-0.689-0.929-0.63,0.336c-2.175-2.486-4.064-3.832-5.557-3.959
			c-1.48,3.4,2.077,6.382,5.117,10.344c1.06,0.853,2.589,2.367,4.083,4.404c0.067-0.344,0.027-0.119,0.123,0.552
			c-0.569-0.336-1.026-0.24-1.478,0.309c3.997,4.99,5.117,10.814,3.571,16.869c1.892-0.291,3.229-0.957,4.229-2.112
			c0.503,0.604,0.668,0.72,0.463,0.328c-4.003,5.875-10.024,10.412-14.403,14.257c7.784-0.936,13.112-5.607,16.044-12.104
			c2.576-2.963,2.401-6.653-0.609-10.029c0.011,0.613-0.054,1.189-0.585,1.635c0.267,0.676,0.068,1.225-0.469,1.555
			c0.148,0.26-0.069,0.303-0.619,0.118c0.444-7.501-4.372-13.583-9.544-18.71c3.335,0.588,6.422,2.451,9.383,4.726
			c1.796,0.092,3.651,0.394,4.723,1.438c0.743-0.764,0.872-0.976,0.368-0.601c-0.602-1.238-2.018-1.76-3.453-1.871
			c-1.459-2.216-3.608-3.719-4.847-4.588C174.6,28.535,171.961,26.828,169.173,26.648z"/>
	</g>
	<g>
		<path fill="#010101" d="M82.284,30.645c-2.273,0.08-5.187,1.432-9.143,3.333c-2.358-0.219-4.593,0.942-5.332,4.255
			c-0.05,3.563-0.429,7.926-1.251,12.322c-0.369,7.22-1.722,14.405-5.199,20.175c-0.477,2.301-0.688,3.459-1.18,3.616
			c-3.258-0.778-5.227-3.187-4.648-7.106c0.074-3.144,1.087-7.274,2.095-11.679c0.89-5.038-0.259-10.222-1.329-14.745
			c-0.465-1.428-2.208-2.235-3.026-1.833c-1.79-1.11-3.418-1.016-4.206-0.201c-5.42-0.577-10.805-3.724-10.316-6.059
			c4.428-2.904,10.298-4.141,16.941-2.831c2.352-1.308,5.172-1.927,7.456-1.345c5.814-3.25,10.911-1.729,15.02,0.915
			C80.427,28.419,81.557,28.786,82.284,30.645z M41.243,33.811c2.225,1.302,5.322,3.554,10.815,2.884
			c0.326-1.046,1.265-1.095,2.473-0.291c1.857-0.88,4.044-0.87,6.557-0.058c-1.393,0.579-3.244,1.55-3.109,3.127
			c-0.06,1.79,0.821,4.197,1.457,7.076c0.826-1.024,1.429-1.608,1.937-1.879c0.252-0.279,0.405-0.243,0.435,0.103
			c-1.771,7.525-3.668,15.379-5.366,22.192c0.093,1.106,0.391,1.151,0.847,0.122c0.313,0.619,0.783,0.165,1.627-1.566
			c0.099,2.982,0.222,4.584,0.379,4.907c4.03-4.124,4.312-9.849,5.396-16.261c-1.119,0.992-1.709,1.295-2.912,1.482
			c0.568-0.582,0.825-1.123,0.899-1.908c1.067-1.648,2.368-3.502,2.425-5.353c0.965-3.282,0.846-6.546,0.971-9.107
			c0.875-3.704,2.252-6.396,6.256-6.314c2.996-1.481,5.063-2.314,6.049-1.814c1.083-1.334,1.017-1.516-0.185-0.516
			c-2.906-2.182-6.858-3.719-11.984-0.841c0.997-0.797,1.447-0.469,1.412,1.03C58.672,30.494,48.939,28.821,41.243,33.811z"/>
	</g>
	<g>
		<path fill="#010101" d="M51.973,74.911c-1.132,0.044-2.476,0.414-3.833,0.063c-4.561-1.221-8.185-4.843-11.257-9.406
			c-0.497-0.727-0.729-1.728-0.95-2.606c-0.545-2.159-0.966-4.318-1.521-6.455c-0.514-1.967-1.386-2.494-2.35-1.172
			c-1.66,2.235-4.109,2.978-6.349,4.093c-1.666,0.795-2.57,2.238-2.525,4.631c0.043,2.229-0.188,4.389-0.509,6.465
			c-0.524,3.356-3.167,4.338-5.255,5.825c-0.229,0.158-0.847-0.233-1.42-0.668c3.672-1.978,4.918-6.096,5.615-10.7
			c0.113-0.746-0.24-1.727-0.457-3.1c-1.258,0.746-2.154,1.268-3.353,1.947c-0.478-2.564,0.335-3.93,1.336-5.037
			c0.84-0.942,1.966-1.641,3.115-2.213c3.938-2.063,7.944-4.178,12.109-6.604c2.224,4.397,2.295,8.851,3.289,13.636
			c1.141-0.543,1.996-0.957,2.911-1.406c0.784,2.201-0.438,4.632,1.904,6.613c2.18,1.862,4.398,3.287,7.102,3.84
			c-1.218-2.781-2.537-5.146-3.273-7.609c-0.711-2.372-0.82-4.859-1.214-7.417c-0.851,1.091-1.567,2.001-2.172,2.763
			c-0.389-3.841-0.328-7.683-1.285-11.338c-0.951-3.609-2.923-6.982-4.748-11.063c-0.572,1.659-0.982,2.841-1.507,4.35
			c-0.902-2.646-1.29-4.872-1.037-7.246c0.133-1.261-0.206-2.794-0.71-4.047c-0.948-2.328-2.17-4.519-3.452-7.078
			c-1.378,1.42-2.776,2.835-4.465,4.513c0.068-0.777,0.029-1.205,0.152-1.55c0.284-0.792,0.64-1.554,0.979-2.325
			c1.308-2.999,2.363-5.902,1.103-9.684c-1.024-3.039-1.071-6.404-1.562-9.659c-1.969,0.583-2.26,2.17-2.372,4.008
			c-0.102,1.687-0.439,3.344-0.674,5.01c-0.215,0.031-0.431,0.064-0.646,0.097c-0.725-1.653-1.449-3.292-2.371-5.361
			c-1.189,1.703-5.857,10.29-7.007,13.098c-0.066,0.163-0.036,0.635,0.05,1.309c0.325,2.52,1.458,7.907,1.435,10.302
			c-0.016,1.693,0.199,3.44,0.326,5.429c-1.793-1.167-1.154-3.079-1.93-4.471c-0.827-1.47-1.322-3.069-1.964-4.597
			c-0.224-0.038-0.449-0.077-0.673-0.115C9.573,37.243,8.59,44.444,7.559,51.919c2.26-0.669,3.014-3.352,6.197-2.286
			c-0.209,2.045-1.208,3.465-2.278,4.769c-0.543,0.652-1.377,1.004-2.033,1.535c-0.351,0.282-0.785,0.588-0.861,1.045
			c-0.458,2.715-0.826,5.467-1.214,8.196c-0.04,0.276-0.026,0.586-0.043,1.056c1.64-0.149,3.168-0.312,4.698-0.496
			c0.129,0.234,0.26,0.471,0.39,0.705c-3.432,4.883-6.566,9.803-11.984,12.494c-0.182-1.018-0.592-1.98-0.363-2.265
			c1.87-2.37,2.571-5.647,2.783-9.341c0.062-1.092,0.444-2.055,0.847-2.947c1.315-2.945,1.552-6.462,1.451-10.21
			c-0.066-2.495,0.48-4.794,0.697-7.21c0.492-5.496,0.639-11.144,1.53-16.526c0.609-3.692,2.104-7.175,3.455-10.701
			c1.081-2.857,4.01-8.723,4.088-8.871c0.942-1.839,2.069-3.605,3.127-5.429c0.187-0.324,0.447-0.66,0.756-0.846
			C22.238,2.484,26.024,1.325,30.092,0c-1.447,4.628-0.678,8.82,0.308,12.971c1.135,4.832,2.225,9.803,3.987,14.563
			c1.588,4.356,4.121,8.446,6.128,12.821c3.105,6.905,6.17,13.957,7.601,21.778C48.84,66.112,50.503,70.108,51.973,74.911z"/>
		<path fill="#010101" d="M20.013,51.341c0.306-1.758,0.609-3.516,0.915-5.27c-0.134-0.092-0.268-0.184-0.402-0.272
			c-0.738,0.638-1.476,1.278-2.499,2.167c2.63-5.939,5.099-11.49,7.563-17.008c0.169,0.008,0.339,0.018,0.508,0.026
			c-1.2,4.44-0.153,7.751,2.894,10.315C26.69,45.51,22.957,47.817,20.013,51.341z"/>
	</g>
	<path fill="#010101" d="M554.934,29.196c0.015-0.146-0.313-0.31-0.695-0.667c-0.942,0.366-2.076,0.606-2.719,1.102
		c-3.698,2.888-7.249,5.842-10.898,8.748c-1.143,0.906-2.292,1.889-3.764,2.522c-0.636,0.274-2.232-0.095-3.136-0.449
		c-0.698-0.271-1.575-1.111-1.368-1.445c1.32-2.12,2.856-4.189,4.44-6.234c1.275-1.667,2.711-3.283,4.083-4.919
		c-0.236-0.123-0.467-0.246-0.703-0.368c-3.073,0.807-6.163,1.618-9.243,2.425c-0.573,0.152-1.142,0.298-1.716,0.451
		c-0.181-0.234-0.364-0.469-0.539-0.704c-0.056-0.002-0.021-0.536-0.079-0.538c-0.695-0.005-2.369,1.445-2.575,2.191
		c-0.228,0.871-0.334,1.87-0.797,2.14c0.055-0.031,0.105-0.062,0.168-0.103c-2.832,3.577-2.762,7.259,0.054,10.89
		c2.329,3.019,3.04,6.125,2.386,9.39c-0.339,1.69-0.937,3.371-1.607,5.022c-1.317,3.242-2.427,6.543-4.267,9.664
		c-1.471,2.479-3.906,4.719-6.354,7.584c2.821-0.42,5.14-0.496,7.033-1.104c9.188-2.938,13.881-8.137,15.751-14.284
		c2.19-7.235,4.999-14.14,12.255-20.159C554.414,37.222,554.539,33.088,554.934,29.196z M550.688,37.505
		c-1.98,2.806-4.515,5.38-8.348,7.471c-2.764,1.508-4.635,3.689-6.899,5.567c0.312,0.18,0.621,0.364,0.933,0.551
		c1.093-0.491,2.176-0.976,3.665-1.642c-0.06,0.589-0.021,0.932-0.142,1.248c-1.393,3.744-2.703,7.509-4.231,11.232
		c-1.959,4.732-5.756,8.691-12.445,11.305c-0.735,0.281-1.665,0.359-3.006,0.635c1.697-3.592,7.888-4.906,8.803-8.669
		c-1.126,0.169-1.919,0.286-2.785,0.417c1.965-7.272,3.897-14.403,5.875-21.729c-1.019,0.229-2.196,0.498-3.776,0.852
		c-3.644-3.793-3.5-7.396,1.763-10.947c-1.305-0.108-1.926-0.158-3.049-0.255c2.46-2.663,7.008-2.276,10.475-3.491
		c-5.847,3.155-6.774,7.47-7.645,11.68c1.707,0.33,3.403,0.963,5.022,0.895c1.774-0.085,3.876-0.549,5.146-1.315
		c3.324-2.001,6.276-4.261,9.405-6.438c-1.34-1.244-0.69-2.25,2.975-3.854C553.181,33.443,552.047,35.57,550.688,37.505z"/>
	<path fill="#010101" d="M515.912,30.238c-5.271,0.922-10.799,1.438-16.277,1.831c-4.215,0.303-8.531,0.09-12.797,0.18
		c-3.199,0.065-3.717,1.22-2.393,2.703c2.309,2.592,5.362,4.578,10.778,4.701c4.474,0.103,8.293,2.379,8.148,5.125
		c-0.228,4.451-1.004,8.894-1.48,13.336c-0.104,0.916-0.27,1.936,0.236,2.761c2.547,4.102,5.303,8.157,8.047,12.214
		c0.342,0.503,1.119,0.902,2.051,1.625c0.517-2.471,0.941-4.533,1.375-6.604c1.459-7.101,4.236-14.129,0.777-21.363
		c-1.521-3.192-0.076-5.49,5.174-7.289c0.166-0.896,2.572-4.745,3.451-4.771c0.072,0,1.719-0.374,1.791-0.374
		c0.25,0.271,0.508,0.541,0.768,0.813c0.375,1.645,1.054-1.696,1.757-1.902c0.385-0.716,0.801-0.329,1.629-0.754
		c1.387-0.723,2.608-1.555,4.049-2.419C528.295,28.678,522.9,29.013,515.912,30.238z M510.02,41.504
		c1.418-0.342,2.269-0.549,3.873-0.937c-3.396,3.695-1.231,6.998-0.684,10.39c0.611,3.76-0.063,7.616-0.496,11.415
		c-0.238,2.082-1.119,4.14-1.865,6.744c-6.449-5.242-9.979-10.079-1.065-15.426c-1.396-0.147-1.843-0.238-2.277-0.226
		c-0.496,0.015-0.973,0.123-1.688,0.22c-1.594-4.437,3.015-9.195-2.227-13.025c1.098-1.161,2.041-2.154,2.982-3.147
		c-0.248-0.22-0.509-0.438-0.767-0.651c-2.567,0.316-5.155,0.6-7.703,0.948c-4.897,0.678-9.237-0.735-10.944-4.166
		c3.147,0.426,5.869,0.626,8.387,1.167c5.768,1.238,11.357,1.142,17.51-0.496c-1.326-0.238-2.145-0.387-4.151-0.755
		c6.563-1.219,12.051-2.244,17.539-3.263C522.652,35.035,512.34,35.784,510.02,41.504z"/>
	<g>
		<path fill="#010101" d="M450.77,11.245c-0.813-1.407-2.067-2.853-3.592-4.266c-3.489-3.206-7.975-5.339-16.342-6.306
			c-5.485-0.627-9.425-0.222-12.282,1.167c-3.962,2.045-9.492,2.857-16.497,2.647c-3.153-0.084-6.074,0.178-8.933,0.286
			c1.31,1.218,2.792,2.182,3.228,3.079c1.688,3.479,3.246,6.95,4.425,10.385c0.755,2.167,0.376,4.279,1.269,6.452
			c2.293,5.59,4.881,11.173,7.45,16.729c2.401,5.237,1.196,10.043-0.528,14.916c-1.024,3.264-3.546,6.146-3.591,9.78
			c0.01,2.52-0.906,4.973-1.383,7.728c4.979-0.183,8.365-2.034,11.691-3.91c3.718-2.008,4.976-4.952,6.051-8.022
			c2.564-6.375,4.437-12.616,3.586-19.137c-0.551-4.624-1.113-9.224-1.417-13.775c-0.051-0.809,0.43-1.782,1.468-2.229
			c2.887-1.208,6.162-2.201,9.491-3.133c5.515-1.453,11.138-2.807,14.211-5.458l3.03-2.759
			C451.692,14.029,451.574,12.643,450.77,11.245z M437.123,20.948c-3.744,0.836-7.532,1.683-11.557,2.242
			c-7.774,1.172-8.655,4.54-8.287,8.575c1.143-0.161,2.023-0.287,3.495-0.486c0.568,3.61,0.784,7.032,1.798,10.462
			c1.084,3.676-3.244,6.232-3.799,9.998c1.338-0.526,2.104-0.823,2.975-1.16c0.429,5.822-2.742,16.434-12.943,19.588
			c-1.229-2.473,0.078-5.275,2.904-6.249c2.624-0.879,3.146-2.609,3.636-4.515c-1.031-0.037-1.869-0.07-2.488-0.097
			c0.325-4.087,0.858-8.019,1.165-11.925c0.144-1.465-0.455-3.018-0.662-4.525c-0.337-2.479-0.718-4.964-0.879-7.415
			c-0.102-1.89,0.088-3.743,0.165-5.598c-0.362-0.129-0.717-0.253-1.078-0.379c-0.46,0.676-0.915,1.361-1.372,2.045
			c-0.569-0.12-1.143-0.245-1.723-0.371c-0.968-2.527-2.177-5.076-2.867-7.585c-0.977-3.575-1.448-7.099-2.292-10.643
			c-0.29-1.227,0.139-1.826,2.681-1.94c2.284-0.1,4.132-0.737,6.192-1.126c-0.179-0.201-0.354-0.397-0.53-0.598
			c-2.436-0.38-4.886-0.764-8.5-1.334c3.423-0.496,6.083-0.676,8.222-1.197c4.179-0.973,8.077-2.141,12.315-3.084
			c2.058-0.438,4.18-0.984,6.683-0.959c6.315,0.094,7.76,0.657,10.717,3.45c0.479,0.452,0.808,0.974,1.573,1.328
			c6.448,2.968,4.09,5.293,2.909,7.869c0.488,0.153,1.216,0.38,2.341,0.735C445.332,18.175,442.003,19.924,437.123,20.948z"/>
		<path fill="#010101" d="M440.883,14.129c-6.06,2.738-12.611,4.852-21.909,5.322c2.03-2.391,3.894-4.468,5.817-6.505
			c-0.249-0.103-0.499-0.207-0.75-0.31c-0.991,0.125-1.979,0.251-3.937,0.507c2.747-3.351,7.763-4.828,14.278-5.273
			c2.156,0.742,3.942,1.356,6.206,2.129C441.167,11.204,436.14,12.008,440.883,14.129z"/>
	</g>
	<g>
		<path fill="#010101" d="M467.728,70.964c-2.112-5.352-4.526-10.656-6.572-15.932c-1.205-3.034-1.972-6.115-2.486-9.146
			c-0.944-5.674-3.179-11.187-9.769-15.665c-2.625-1.698-6.834-2.725-10.61-3.581c-2.613-0.571-4.361,0.353-3.631,2.056
			c0.672,1.592,1.684,3.167,2.333,4.764c0.596,1.479,0.928,2.966,1.372,4.452c-0.171-0.009-0.35-0.014-0.521-0.018l-0.873,4.408
			c-0.317,4.889-2.762,8.95-6.219,12.436c-3.485,3.615-5.624,7.49-5.491,12.047c0.086,1.608,0.716,3.367,1.119,5.043
			c0.391,0.169,0.783,0.337,1.175,0.507c1.32-0.679,2.889-1.233,3.986-2.111c2.335-1.845,4.684-3.827,6.883-6.01
			c2.479-2.413,4.888-5.017,7.213-7.785c1.019-1.192,1.229-2.791,2.01-4.149c0.22-0.377,1.092-0.515,1.667-0.766
			c0.474,0.445,1.13,0.88,1.375,1.344c1.564,3.03,2.692,6.111,4.562,9.125c2.302,3.84,4.449,7.994,10.748,10.041
			c0.597,0.199,1.463,0.442,1.772,0.267C468.057,72.12,467.906,71.426,467.728,70.964z M459.052,64.741
			c-0.261-0.495,0.29-1.047,0.466-1.575c0.293-0.041,0.582-0.089,0.885-0.129c-1.525-1.257-3.074-2.482-4.596-3.731
			c-0.495-0.396-1.057-0.863-1.232-1.298c-1.063-2.629-2.035-5.263-3.067-7.909c-4.628-0.8-4.925-0.547-6.498,1.774
			c-1.188,1.801-3.053,3.28-4.592,4.917c0.421,0.093,1.151,0.255,2.294,0.507c-5.343,4.853-10.077,9.304-14.341,13.472
			c-0.466-0.234-0.939-0.472-1.41-0.71c-0.521-4.593-1.136-9.368,6.604-11.04c-1.022-0.178-2.047-0.359-3.369-0.589
			c0.203-0.457,0.239-0.858,0.527-1.129c3.417-3.069,6.528-6.45,8.151-10.685c0.293-0.723,2.594-0.883,4.197-1.377
			c-0.802-0.551-1.783-1.11-2.51-1.754c-0.577-0.506-1.385-1.293-1.169-1.662c2.018-3.331,0.497-6.841-1.748-10.386
			c-0.078-0.113,0.049-0.251,0.121-0.55c0.921-0.093,1.962-0.201,3.248-0.329c-0.949-0.769-1.813-1.467-2.706-2.186
			c7.921,0.82,11.232,4.311,14.019,8.08c2.684,3.764,4.51,7.579,2.604,11.252c5.045,2.926,3.5,5.566,1.599,8.253
			c3.101,0.815,3.452,2.294,4.1,3.999c0.986,2.652,2.69,5.314,4.063,7.994c0.201,0.404,0.432,0.804,0.674,1.253
			C462.701,68.807,460.32,67.151,459.052,64.741z"/>
		<path fill="#010101" d="M444.717,36.632c1.077,0.974,2.146,1.952,3.455,3.171c1.004-1.191,1.419-1.678,1.835-2.169
			c0.262,0.019,0.521,0.037,0.783,0.056c0.675,2.703,1.349,5.408,2.071,8.299c-2.562-1.127-4.728-2.002-6.804-2.971
			c-0.606-0.279-1.217-0.873-1.299-1.296c-0.293-1.535-0.354-3.061-0.495-4.594C444.415,36.963,444.566,36.799,444.717,36.632z"/>
	</g>
	<g>
		<path fill="#010101" d="M494.836,72.995c-4.887-2.208-11.024-3.952-12.459-8.083c-1.307-3.771-0.72-7.813-1.577-11.753
			c-3.558,6.523-2.963,13.406-4.344,20.371c-4.177-0.698-6.274-2.791-7.831-4.844c-2.52-3.326-4.479-6.57-2.862-10.738
			c2.505-6.455,2.669-13.188-0.746-19.708c-1.187-2.264-2.684-4.462-3.832-6.734c-0.48-0.953-0.423-2.019-0.728-3.676
			c3.617,0.411,6.779,0.524,9.672,1.16c3.474,0.765,6.794,1.881,10.045,3.011c7.656,2.662,9.311,7.155,4.245,11.873
			c6.762,5.377,9.879,11.604,9.521,18.653c-0.114,2.271,1.181,4.57,1.695,6.869c0.241,1.066,0.167,2.164,0.235,3.248
			C495.527,72.763,495.18,72.879,494.836,72.995z M490.899,60.265c1.447-7.316-4.315-12.124-11.386-16.707
			c0.538-0.258,1.216-0.576,1.889-0.904c3.805-1.865,4.409-2.938,2.313-5.724c-0.864-1.145-2.436-2.289-4.134-2.905
			c-4.279-1.55-8.801-2.816-13.255-4.152c-0.71-0.212-1.574-0.204-2.367-0.296c-0.215,0.184-0.433,0.369-0.647,0.554
			c2.007,1.234,4.017,2.469,6.023,3.703c-0.482,0.095-0.961,0.192-1.444,0.288c-0.179,1.204-0.702,2.44-0.456,3.609
			c0.453,2.136,1.25,4.254,2.133,6.338c0.452,1.063,1.402,2.039,2.012,2.89c-0.894,3.159-1.819,6.469-2.761,9.774
			c-0.156,0.553-0.28,1.118-0.58,1.64c-2.83,4.946,2.133,8.416,5.524,12.18c0.051,0.054,0.442-0.021,1.047-0.056
			c0.153-1.526,0.86-3.176,0.319-4.633c-0.561-1.506-2.335-2.825-3.974-4.674c2.128,0.19,3.27,0.293,5.014,0.448
			c0.737-4.612,1.454-9.104,2.173-13.596c5.408,1.5,10.286,5.251,8.666,6.569c-1.054,0.024-2.058,0.049-3.117,0.074
			c-0.227,2.145-1.006,4.203-0.484,6.118c0.5,1.845,2.113,3.628,3.66,5.272c1.538,1.635,3.603,3.06,5.438,4.578
			c0.396-0.133,0.791-0.265,1.188-0.396c-0.547-1.837-0.711-3.771-1.753-5.482c-1.042-1.713-2.964-3.199-5.025-5.328
			C488.801,59.835,489.646,60.009,490.899,60.265z"/>
		<path fill="#010101" d="M474.174,43.003c-0.607-3.002-1.19-5.881-1.771-8.75c4.119-0.02,8.579,1.806,9.175,3.772
			C482.08,39.686,478.547,42.022,474.174,43.003z"/>
	</g>
	<path fill="#010101" d="M222.868,1.63c5.037,2.563,9.856,4.882,14.508,7.469c0.754,0.417,1.258,2.195,1.04,3.14
		c-0.811,3.502,0.254,6.694,1.475,9.961c0.805,2.147,2.209,3.037,4.532,2.962c3.648-0.116,6.269-1.705,7.603-4.765
		c1.308-2.997,2.454-6.079,3.336-9.211c0.572-2.034,1.364-3.328,3.877-3.256c3.589,0.101,7.179,0.062,10.769,0.095
		c1.271,0.012,1.789,0.627,1.455,1.737c-0.275,0.912-0.608,1.813-0.994,2.689c-1.941,4.418-3.217,8.986-3.475,13.853
		c-0.123,2.272-0.943,4.488-1.136,6.763c-0.629,7.372-1.071,14.762-1.682,22.144c-0.211,2.565-0.246,5,1.54,7.215
		c0.603,0.746,0.896,1.703,1.466,2.831c-7.685,2.742-13.052,8.189-19.303,13.684c-0.132-1.873-0.333-2.965-0.266-4.043
		c0.485-7.545,1.019-15.084,1.548-22.619c0.243-3.439-1.869-8.957-4.69-11.84c-0.397,0.704-0.874,1.284-1.073,1.944
		c-1.404,4.667-2.983,9.31-4.011,14.072c-0.473,2.19,0.257,4.606,0.286,6.921c0.061,4.93,0.019,9.861,0.019,14.792
		c-0.253,0.122-0.507,0.241-0.761,0.362c-1.134-0.943-2.426-1.771-3.37-2.865c-2.17-2.521-3.913-5.418-6.305-7.73
		c-3.108-3.014-6.571-5.744-10.098-8.339c-1.55-1.144-1.823-1.882-0.959-3.524c3.57-6.768,6.954-13.561,7.693-21.305
		c0.579-6.036-0.698-11.838-2.622-17.532c-1.455-4.314-1.238-8.585-1.255-12.9C222.012,3.626,222.439,2.937,222.868,1.63z
		 M261.213,23.07c3.284-1.969,3.248-1.98,4.408-5.5c0.272-0.819,0.869-1.532,1.298-2.303c0.646-1.162,1.304-2.318,1.905-3.5
		c0.565-1.113-0.069-1.72-1.228-1.884c-2.335-0.333-4.859-1.146-6.056,1.733c-0.169,0.413-0.864,0.621-1.66,1.156
		c0-1.188,0-1.905,0-2.766c-0.558,0.06-1.207,0.002-1.262,0.155c-2.044,5.541-4.033,11.113-6.01,16.644
		c-0.289-0.296-0.868-0.885-1.274-1.299c-1.915,0.837-3.632,2.236-5.395,2.233c-4.057-0.008-8.136-0.7-12.806-1.177
		c1.278-1.246,2.502-2.438,3.894-3.79c-1.459-2.982-2.033-6.434-1.187-10.009c0.123-0.512,0.025-1.444-0.316-1.648
		c-3.176-1.908-6.426-3.705-9.721-5.579c-1.673,5.426,1.661,8.856,4.542,12.565c-1.155,0.077-1.894,0.126-2.626,0.176
		c0.45,4.701,0.883,9.223,1.327,13.872c1.442-0.419,2.266-0.659,3.091-0.898c0.205,0.198,0.409,0.396,0.613,0.595
		c-1.03,1.48-2.083,2.95-3.08,4.456c-0.439,0.667-0.91,1.368-1.119,2.12c-0.759,2.762-1.108,5.672-2.192,8.304
		c-1.146,2.784-3.753,5.203-0.238,8.854c-1.685-0.321-2.431-0.552-3.183-0.577c-0.541-0.018-1.397,0.093-1.56,0.41
		c-0.274,0.533-0.309,1.346-0.074,1.906c0.209,0.498,0.94,0.793,1.408,1.207c3.165,2.795,6.419,5.5,9.448,8.404
		c1.842,1.762,3.329,3.85,4.977,5.785c0.208-0.05,0.417-0.102,0.625-0.148c-0.129-2.83-0.404-5.662-0.358-8.486
		c0.056-3.442-3.545-4.463-5.331-7.244c1.635,0.568,2.792,0.972,3.895,1.355c0.729-3.875,1.412-7.513,2.14-11.377
		c-0.957-0.019-1.905-0.035-2.853-0.054c-0.147-0.209-0.293-0.418-0.439-0.628c3.006-3.006,5.969-6.044,9.081-8.931
		c0.378-0.351,1.995-0.227,2.283,0.16c1.327,1.787,2.376,3.746,3.544,5.63c0.291,0.469,0.648,0.9,1.036,1.437
		c0.697-0.731,1.185-1.241,1.672-1.752c0.242,0.062,0.484,0.122,0.726,0.185c-0.873,6.156-1.744,12.319-2.684,18.951
		c1.195-0.793,1.906-1.267,2.614-1.736c0.266,0.119,0.528,0.238,0.791,0.355c-0.647,1.735-0.925,3.725-2.03,5.151
		c-1.888,2.44-1.237,5.022-1.151,7.836c0.812-0.361,1.108-1.097,1.669-1.56c2.855-2.363,5.704-4.742,8.708-6.92
		c1.866-1.349,1.976-2.404-0.09-3.604c-0.525-0.306-1.097-0.54-1.196-0.588c0.57-1.847,1.28-3.437,1.512-5.091
		c0.253-1.778,0.056-3.618,0.056-5.461c-0.905,0.108-1.544,0.186-2.918,0.352c1.766-2.396,3.705-4.109,4.385-6.195
		c0.694-2.129,0.154-4.626,0.154-7.062c-0.53,0.078-1.071,0.157-1.948,0.285c0.936-1.897,1.52-3.626,2.566-5.053
		c1.235-1.677,0.861-3.481,1.117-5.279C265.069,24.729,263.109,24.133,261.213,23.07z"/>
	<path fill="#010101" d="M357.561,37.6c-5.713,0.287-10.76,0.543-15.896,0.804c1.205,0.97,2.502,2.248,4.156,3.292
		c7.198,4.529,8.002,10.218,8.827,16.115c0.757,5.402-2.834,9.817-6.271,14.229c-1.555,1.999-5.404,3.279-8.334,4.797
		c-0.375,0.193-1.754-0.02-2.187-0.324c-3.604-2.561-6.9-4.995-5.588-9.102c0.92-2.866-0.223-6.032-0.51-9.063
		c-0.344-3.647-0.711-7.298-1.168-10.944c-0.141-1.117-0.609-2.224-1.037-3.713c1.91,0.44,3.146,0.725,4.379,1.008
		c0.117-0.102,0.234-0.202,0.353-0.303c-2.64-1.885-5.323-3.748-7.903-5.674c-3.696-2.769-5.98-5.911-5.264-9.584
		c0.148-0.759,1.214-1.736,2.271-2.02c3.812-1.025,7.537-1.052,11.431,0.671c6.186,2.726,12.67,5.148,19.049,7.65
		c0.774,0.303,1.711,0.436,2.846,0.715c-0.258-1.433-0.471-2.634-0.75-4.226c4.727,0.121,9.158,0.222,13.586,0.372
		c0.398,0.013,0.787,0.341,1.182,0.522c-0.389,0.327-0.702,0.893-1.182,0.94c-1.977,0.2-4,0.272-6.014,0.333
		c-1.133,0.035-2.287-0.045-4.072-0.089c0.844,1.234,1.463,2.136,2.076,3.034c-0.232,0.012-0.469,0.022-0.703,0.032
		c0,0.861-0.422,1.832,0.078,2.563c1.459,2.13,3.27,4.167,4.973,6.226c0.533,0.642,1.176,1.248,2.248,2.371
		c-2.381-0.136-3.953-0.226-5.731-0.326c-0.31,2.666-0.888,5.338-0.771,8.008c0.035,0.824,1.967,1.641,3.191,2.582
		c0.02-0.102,0.028,0.13-0.039,0.139c-3.693,0.482-4.342,2.288-4.789,4.3c-0.269,1.188-1.035,2.325-1.646,3.625
		c0.754,0.101,1.418,0.188,2.56,0.339c-1.693,1.476-3.267,2.848-4.842,4.221c0.12,0.089,0.243,0.176,0.364,0.263
		c1.324-0.563,2.617-1.162,3.984-1.687c2.813-1.073,5.711-2.057,8.471-3.176c1.226-0.494,2.408-1.145,3.23-1.893
		c1.307-1.191,2.479-1.987,5.192-1.589c1.234,0.181,2.804-0.61,4.117-1.214c-4.99-1.262-9.559,0.259-15.063,0.851
		c4.756-3.765,4.287-7.231-0.117-11.073c4.748,0.075,8.602,0.137,13.07,0.207c-4.896-4.224-11.882-7.382-10.318-13.146
		c-0.834-0.071-1.588-0.135-2.459-0.208c0.16-0.263,0.184-0.529,0.389-0.6c1.984-0.694,3.947-1.422,6.021-2.002
		c3.146-0.878,9.18-2.314,12.311-3.207c2.008-0.571-3.897,0.585-4.963-1.254c1.762-0.055,8.752-1.335,10.787-1.397
		c-2.262,3.097-6.586,4.724-10.9,5.917c-1.639,0.455-3.364,0.791-4.983,1.266c-3.381,0.993-4.082,2.077-3.32,4.519
		c1.156,3.686,4.889,6.312,9.043,8.758c0.932,0.547,2.041,0.976,3.068,1.457c-0.187,0.264-0.371,0.524-0.56,0.787
		c-2.442,0.229-4.871,0.584-7.33,0.646c-2.145,0.055-3.11,0.604-3.219,1.902c-0.117,1.408-0.264,2.816-0.395,4.226
		c4.815,0.361,9.664,0.722,14.512,1.082c0.092,0.318,0.186,0.638,0.277,0.955c-12.14,4.666-24.277,9.392-36.414,14.176
		c-0.259-0.085-0.509-0.17-0.767-0.254c0.713-1.213,1.406-2.431,2.142-3.638c2.155-3.542,5.416-6.965,6.229-10.625
		c1.189-5.316,0.83-10.813,0.701-16.233C359.105,42.338,358.053,39.729,357.561,37.6z M341.033,75.034
		c3.491-1.793,6.346-4.019,6.6-6.777c0.146-1.59,0.1-3.162,1.424-4.396c2.189-2.033,2.722-4.246,2.656-6.598
		c-0.09-3.381,0.326-6.83-2.949-10.013c-0.805,0.253-1.479,0.465-1.406,0.44c-1.903-2.244-2.934-5.063-5.672-6.332
		c-4.547-2.116-6.059-5.344-9.369-7.851c-0.277-0.212-0.287-0.571-0.42-0.861c0.216-0.169,0.432-0.337,0.646-0.506
		c2.684,1.062,5.359,2.126,8.051,3.176c3.584,1.396,6.547,1.568,8.877,0.408c-3.621-1.257-7.102-2.521-10.652-3.692
		c-3.323-1.099-5.01-3.852-9.778-4.457c0.598,1.052,0.896,1.573,1.42,2.492c-2.496-0.622-4.42-1.101-6.348-1.583
		c-1.222,2.586-0.53,4.462,1.313,5.305c2.523,1.155,4.847,2.493,7.229,3.77c0.19,0.103,0.187,0.361,0.3,0.606
		c-0.797,0.322-1.536,0.621-2.879,1.165c3.467,2.148,6.864,3.994,9.771,6.111c2.789,2.021,5.068,4.326,7.998,6.869
		c0.191,6.569-4.215,12.903-9.203,19.254c-0.828-1.674-1.313-3.336-1.125-4.961c0.229-1.977,1.094-3.91,1.57-5.873
		c1.059-4.356,1.211-8.643-3.381-12.455c-0.635-0.529-1.391-1-2.09-1.5c-0.47,0.801-0.289,1.347-0.327,1.881
		c-0.278,3.67,0.755,7.132,4.054,10.252c0.115,0.111-0.09,0.363-0.16,0.582c-0.869-0.135-1.66-0.256-2.805-0.436
		c0.176,0.786,0.385,1.377,0.43,1.973c0.16,2.11,0.91,4.317,0.24,6.312c-1.148,3.407-0.586,4.824,4.137,6.455
		C339.811,74.01,340.229,74.481,341.033,75.034z M337.193,46.54c1.732,2.447,4.207,4.79,4.957,7.312
		c0.763,2.569-0.176,5.323-0.37,8.015C346.867,58.633,343.734,48.392,337.193,46.54z"/>
	<g>
		<path fill="#010101" d="M294.773,77.925c-1.455-2.206-0.918-4.418,0.188-6.626c1.718-3.428,5.952-10.429,7.14-13.921
			c-1.812,0.352,2.399-11.534-1.114-19.014c-0.985-2.097-1.615-3.808-1.813-6.019c1.256-2.045,1.256-4.13,1.256-6.445
			c3.885,0.084,6.158,1.909,9.482,2.973c1.453,0.464,2.84-0.29,4.218,0.301c1.024,0.44,1.641,1.496,2.043,2.341
			c1.351,2.834,7.265,6.518,0.991,9.533c2.761-0.091,3.625,2.764,4.742,6.027c3.485,2.285,4.522,5.39,4.321,7.012
			c-0.115,4.221,2.466,11.092,3.438,16.765c0.063,0.369-4.092,3.897-4.273,4.583c-2.512-8.343-10.896-16.695-11.112-25.4
			c-0.261,0.008-0.52,0.018-0.775,0.025c-0.309,0.354-0.814,0.688-0.896,1.064c-0.668,3.136-1.752,6.275-1.758,9.429
			c-0.007,5.038-1.408,9.458-8.01,12.651C300.066,74.547,297.657,76.215,294.773,77.925z M303.1,68.514
			c-0.242-0.114-0.481-0.229-0.725-0.344c1.594-1.81,3.205-3.61,4.775-5.421c0.507-0.583,1.188-1.176,1.317-1.809
			c0.71-3.48,1.361-6.968,1.82-10.463c0.112-0.865-0.563-1.789-0.873-2.687c1.285-2.552,2.296-2.786,7.491-1.849
			c-0.131,3.674-1.137,7.398,1.296,11.416c0.795-0.819,1.198-1.234,1.604-1.649c0.654,2.229-0.063,4.521,0.859,6.508
			c0.903,1.958,2.748,4.692,4.585,6.468c0.433-0.111,2.329,1.963,2.765,1.853c-0.833-2.419-2.381-8.119-3.252-10.537
			c-0.408-1.14-1.899-2.695-1.246-3.31c2.211-2.074,0.016-3.988,0.049-5.941c0.023-1.233-0.76-2.288-3.228-1.77
			c-0.121-0.357-0.258-0.562-0.247-0.759c0.04-0.896,0.153-1.788,0.18-2.685c0.063-2.158-0.864-3.688-3.982-3.213
			c-1.268,0.193-2.583,0.267-3.878,0.395c-0.32-0.287-0.646-0.572-0.965-0.859c0.926-0.306,1.971-0.516,2.762-0.93
			c4.641-2.423,3.811-2.842,1.829-6.535c-1.272-2.369-3.578-3.412-7.229-3.785c-1.422-0.146-2.743-1.045-4.022-1.68
			c-0.642-0.317-1.087-0.809-1.622-1.222c-0.597,0.45-1.635,0.862-1.701,1.356c-0.214,1.583-0.135,3.198-0.013,4.798
			c0.035,0.481,0.639,0.947,0.896,1.437c0.461,0.88,1.01,1.76,1.232,2.665c0.174,0.721-0.402,1.53-0.103,2.209
			c1.99,4.485,2.309,8.92,0.323,13.371c-0.546,1.22-0.978,2.532,1.589,2.668c-3.356,6.009-6.672,11.962-9.986,17.935
			c0.319,0.109,0.644,0.223,0.966,0.332c3.891-1.949,8.046-3.727,10.381-7.498C305.02,67.704,304.061,68.108,303.1,68.514z"/>
		<path fill="#010101" d="M313.289,37.755c-1.31,0.989-2.777,2.138-4.326,3.241c-0.348,0.25-0.967,0.335-2.072,0.696
			c0-3.077,0-5.851,0-8.644C311.217,33.303,312.265,35.378,313.289,37.755z"/>
	</g>
	<g>
		<path fill="#010101" d="M268.451,59.853c1.754-9.009,3.314-18.544,5.647-27.931c0.623-2.508,3.505-4.664,5.6-6.833
			c0.414-0.425,2.146-0.509,2.967-0.219c4.218,1.485,7.274,3.579,8.989,7.185c4.025,8.429,3.755,17.025,3.595,25.573
			c-0.059,3.223-2.311,6.402-3.586,9.604c-1.196,3.008-2.504,5.949-6.248,7.842c-3.645,1.852-5.729,1.916-8.327-0.721
			c-2.894-2.945-5.411-6.145-7.675-9.41C268.535,63.674,268.805,61.956,268.451,59.853z M277.483,68.2
			c0.229,4.052,1.677,6.472,4.016,6.465c2.392-0.008,3.438-1.031,2.879-2.823c3.142-0.166,7.372-4.463,5.704-6.078
			c-1.608-1.562-0.473-2.396,0.197-3.297c4.281-5.758,3.794-11.803,1.932-18.213c-0.671,0.938-1.208,1.688-1.745,2.438
			c-0.551-4.254-0.702-8.303-0.495-12.331c0.142-2.719-1.345-5.023-5.037-6.677c-0.418,0.408-0.845,0.824-1.236,1.207
			c-1.348-0.85-2.508-1.585-3.822-2.417c-0.881,1.113-1.74,1.961-2.278,2.922c-1.24,2.205-2.902,4.409,0.096,6.785
			c0.583,0.46,0.411,1.467,0.627,2.401c-1.516-0.159-2.494-0.262-3.78-0.398c-0.221,0.896-0.486,1.688-0.601,2.497
			c-0.381,2.726-0.377,5.521-1.15,8.173c-0.833,2.863-1.289,5.555,0.411,8.367c0.448,0.739,0.067,1.76,0.067,2.729
			c-3.203-1.027-2.518,0.912-2.594,1.896C270.445,64.78,274.316,68.284,277.483,68.2z"/>
		<path fill="#010101" d="M290.753,53.452c-4.03,3.755-3.056,8.068-4.374,11.91c-0.715,2.082-1.378,4.176-2.121,6.434
			c-0.589-0.266-1.111-0.359-1.189-0.557c-1.302-3.201-2.717-6.392-3.738-9.651c-0.534-1.699-0.412-3.517-0.49-5.283
			c-0.068-1.562-0.029-3.112-3.407-2.868c3.093-6.414,8.078-12.074,5.87-19.554c2.071,1.25,3.492,2.105,4.912,2.959
			c0.249-0.124,0.5-0.247,0.749-0.37c0.203,4.729,0.468,9.455,0.566,14.18C287.564,52.188,287.809,53.399,290.753,53.452z"/>
	</g>
</g>
</svg>
